<?xml version="1.0" encoding="UTF-8" standalone="no"?>
<svg width="104px" height="92px" viewBox="0 0 104 92" version="1.1" xmlns="http://www.w3.org/2000/svg" xmlns:xlink="http://www.w3.org/1999/xlink">
    <!-- Generator: Sketch 40.3 (33839) - http://www.bohemiancoding.com/sketch -->
    <title>“ copy</title>
    <desc>Created with Sketch.</desc>
    <defs></defs>
    <g id="desktop" stroke="none" stroke-width="1" fill="none" fill-rule="evenodd" fill-opacity="0.4">
        <g id="landing-desktop" transform="translate(-766.000000, -6075.000000)" fill="#B5DBFC">
            <path d="M802.04,6075 C778.58,6088.6 766,6108.32 766,6135.52 C766,6155.24 773.82,6166.12 787.42,6166.12 C797.96,6166.12 805.44,6158.98 805.44,6147.42 C805.44,6136.2 796.6,6130.08 787.42,6130.08 C786.4,6130.08 785.38,6130.08 784.36,6130.42 C784.36,6111.04 792.86,6099.48 810.2,6088.26 L802.04,6075 Z M862.22,6075 C838.42,6088.6 825.84,6108.32 825.84,6135.52 C825.84,6155.24 833.66,6166.12 847.26,6166.12 C857.8,6166.12 865.28,6158.98 865.28,6147.42 C865.28,6136.2 856.78,6130.08 847.26,6130.08 C846.24,6130.08 845.22,6130.08 844.2,6130.42 C844.2,6111.04 853.04,6099.48 870.04,6088.26 L862.22,6075 Z" id="“-copy"></path>
        </g>
    </g>
</svg>