<?xml version="1.0" encoding="UTF-8" standalone="no"?>
<svg width="990px" height="558px" viewBox="0 0 990 558" version="1.1" xmlns="http://www.w3.org/2000/svg" xmlns:xlink="http://www.w3.org/1999/xlink">
    <!-- Generator: Sketch 42 (36781) - http://www.bohemiancoding.com/sketch -->
    <title>Artboard</title>
    <desc>Created with Sketch.</desc>
    <defs></defs>
    <g id="desktop" stroke="none" stroke-width="1" fill="none" fill-rule="evenodd">
        <g id="Artboard">
            <g id="Group" transform="translate(30.000000, 27.000000)">
                <path d="M13.9296875,497.576172 L7.8125,497.576172 L7.8125,486.317383 L6.23046875,486.317383 L6.23046875,499 L13.9296875,499 L13.9296875,497.576172 Z M19.8652343,499.087891 C17.2021484,499.087891 15.4970703,497.198242 15.4970703,494.262695 C15.4970703,491.318359 17.2021484,489.4375 19.8652343,489.4375 C22.5283203,489.4375 24.2333984,491.318359 24.2333984,494.262695 C24.2333984,497.198242 22.5283203,499.087891 19.8652343,499.087891 Z M19.8652343,497.725586 C21.6318359,497.725586 22.6777343,496.433594 22.6777343,494.262695 C22.6777343,492.083008 21.6318359,490.799805 19.8652343,490.799805 C18.0986328,490.799805 17.0527343,492.091797 17.0527343,494.262695 C17.0527343,496.433594 18.1074218,497.725586 19.8652343,497.725586 Z M38.580078,489.525391 L37.0683593,489.525391 L35.1435546,497.268555 L35.1083983,497.268555 L32.9374999,489.525391 L31.4609374,489.525391 L29.2900389,497.268555 L29.2548827,497.268555 L27.330078,489.525391 L25.8183593,489.525391 L28.4726561,499 L30.0195311,499 L32.1816405,491.634766 L32.2167968,491.634766 L34.3789061,499 L35.9257811,499 L38.580078,489.525391 Z M46.1884763,487.389648 L46.1884763,489.525391 L44.8701169,489.525391 L44.8701169,490.791016 L46.1884763,490.791016 L46.1884763,496.539062 C46.1884763,498.358398 46.8564451,499.070312 48.5703123,499.070312 C48.9306638,499.070312 49.3701169,499.035156 49.5546873,498.991211 L49.5546873,497.699219 C49.4492185,497.716797 49.0800779,497.743164 48.8955076,497.743164 C48.0869138,497.743164 47.7177732,497.347656 47.7177732,496.477539 L47.7177732,490.791016 L49.5634763,490.791016 L49.5634763,489.525391 L47.7177732,489.525391 L47.7177732,487.389648 L46.1884763,487.389648 Z M52.097656,499 L53.6269528,499 L53.6269528,489.525391 L52.097656,489.525391 L52.097656,499 Z M52.8623044,487.996094 C53.3984372,487.996094 53.8291013,487.556641 53.8291013,487.029297 C53.8291013,486.493164 53.3984372,486.0625 52.8623044,486.0625 C52.3349606,486.0625 51.8955075,486.493164 51.8955075,487.029297 C51.8955075,487.556641 52.3349606,487.996094 52.8623044,487.996094 Z M60.1337887,499.087891 C57.7519528,499.087891 56.0732418,497.154297 56.0732418,494.262695 C56.0732418,491.371094 57.7431637,489.4375 60.0986325,489.4375 C61.4521481,489.4375 62.5419918,490.026367 63.12207,491.063477 L63.1572262,491.063477 L63.1572262,485.763672 L64.6865231,485.763672 L64.6865231,499 L63.2275387,499 L63.2275387,497.400391 L63.2011715,497.400391 C62.5859371,498.490234 61.5048825,499.087891 60.1337887,499.087891 Z M60.4062496,490.799805 C58.7451168,490.799805 57.637695,492.170898 57.637695,494.262695 C57.637695,496.363281 58.7451168,497.725586 60.4062496,497.725586 C62.0498043,497.725586 63.1660153,496.328125 63.1660153,494.262695 C63.1660153,492.206055 62.0498043,490.799805 60.4062496,490.799805 Z M71.3779293,490.782227 C69.8925777,490.782227 68.8203121,491.863281 68.7148433,493.462891 L73.9267574,493.462891 C73.8916011,491.854492 72.8720699,490.782227 71.3779293,490.782227 Z M73.8916011,496.292969 L75.4033199,496.292969 C75.139648,497.918945 73.4960933,499.087891 71.474609,499.087891 C68.811523,499.087891 67.1328121,497.233398 67.1328121,494.297852 C67.1328121,491.362305 68.8203121,489.4375 71.4042965,489.4375 C73.9355465,489.4375 75.5175777,491.22168 75.5175777,494.086914 L75.5175777,494.68457 L68.7148433,494.68457 L68.7148433,494.772461 C68.7148433,496.574219 69.8222652,497.743164 71.5097652,497.743164 C72.6962886,497.743164 73.6191402,497.180664 73.8916011,496.292969 Z M86.1582026,499 L87.6874995,499 L87.6874995,486.317383 L86.1406245,486.317383 L82.7656245,488.743164 L82.7656245,490.413086 L86.1230463,487.996094 L86.1582026,487.996094 L86.1582026,499 Z M92.4716791,499.087891 C93.0429682,499.087891 93.4736322,498.648438 93.4736322,498.085938 C93.4736322,497.514648 93.0429682,497.083984 92.4716791,497.083984 C91.9091791,497.083984 91.469726,497.514648 91.469726,498.085938 C91.469726,498.648438 91.9091791,499.087891 92.4716791,499.087891 Z M96.456054,489.973633 L96.456054,489.982422 L97.9853509,489.982422 L97.9853509,489.973633 C97.9853509,488.558594 99.1103509,487.486328 100.595702,487.486328 C101.993163,487.486328 103.109374,488.461914 103.109374,489.683594 C103.109374,490.738281 102.705077,491.415039 100.999999,493.208008 L96.5351556,497.910156 L96.5351556,499 L104.902343,499 L104.902343,497.59375 L98.7236322,497.59375 L98.7236322,497.558594 L101.93164,494.245117 C104.049804,492.056641 104.691406,491.001953 104.691406,489.586914 C104.691406,487.644531 102.907226,486.106445 100.639648,486.106445 C98.2490228,486.106445 96.456054,487.758789 96.456054,489.973633 Z M107.981445,499 L109.510741,499 L109.510741,490.791016 L111.356445,490.791016 L111.356445,489.525391 L109.510741,489.525391 L109.510741,488.646484 C109.519531,487.758789 109.853515,487.389648 110.644531,487.389648 C110.881835,487.389648 111.154296,487.416016 111.356445,487.459961 L111.356445,486.194336 C111.066406,486.141602 110.802734,486.115234 110.503906,486.115234 C108.746093,486.115234 107.981445,486.897461 107.981445,488.646484 L107.981445,489.525391 L106.663085,489.525391 L106.663085,490.791016 L107.981445,490.791016 L107.981445,499 Z M114.259765,487.389648 L114.259765,489.525391 L112.941405,489.525391 L112.941405,490.791016 L114.259765,490.791016 L114.259765,496.539062 C114.259765,498.358398 114.927734,499.070312 116.641601,499.070312 C117.001952,499.070312 117.441405,499.035156 117.625976,498.991211 L117.625976,497.699219 C117.520507,497.716797 117.151366,497.743164 116.966796,497.743164 C116.158202,497.743164 115.789062,497.347656 115.789062,496.477539 L115.789062,490.791016 L117.634765,490.791016 L117.634765,489.525391 L115.789062,489.525391 L115.789062,487.389648 L114.259765,487.389648 Z M144.737304,499.210938 C141.77539,499.210938 140.061522,496.662109 140.061522,492.654297 C140.061522,488.681641 141.792968,486.106445 144.737304,486.106445 C147.68164,486.106445 149.395507,488.664062 149.395507,492.645508 C149.395507,496.65332 147.690429,499.210938 144.737304,499.210938 Z M144.737304,497.831055 C146.714843,497.831055 147.804686,495.818359 147.804686,492.654297 C147.804686,489.53418 146.697265,487.495117 144.737304,487.495117 C142.777343,487.495117 141.652343,489.551758 141.652343,492.645508 C141.652343,495.80957 142.750975,497.831055 144.737304,497.831055 Z M157.994139,499 L157.994139,496.363281 L151.622069,496.363281 L151.622069,494.930664 C152.703124,492.926758 154.188475,490.615234 157.185546,486.317383 L159.523436,486.317383 L159.523436,494.974609 L161.316405,494.974609 L161.316405,496.363281 L159.523436,496.363281 L159.523436,499 L157.994139,499 Z M153.186522,494.939453 L153.186522,494.974609 L157.994139,494.974609 L157.994139,487.635742 L157.967772,487.635742 C155.568358,491.063477 154.188475,493.181641 153.186522,494.939453 Z M164.861327,496.890625 C165.432616,496.890625 165.86328,496.451172 165.86328,495.888672 C165.86328,495.317383 165.432616,494.886719 164.861327,494.886719 C164.298827,494.886719 163.859374,495.317383 163.859374,495.888672 C163.859374,496.451172 164.298827,496.890625 164.861327,496.890625 Z M164.861327,490.421875 C165.432616,490.421875 165.86328,489.982422 165.86328,489.419922 C165.86328,488.848633 165.432616,488.417969 164.861327,488.417969 C164.298827,488.417969 163.859374,488.848633 163.859374,489.419922 C163.859374,489.982422 164.298827,490.421875 164.861327,490.421875 Z M171.508788,493.146484 L173.099608,493.146484 C174.910155,493.146484 176.035155,494.069336 176.035155,495.563477 C176.035155,496.890625 174.831053,497.839844 173.152342,497.839844 C171.447264,497.839844 170.36621,496.943359 170.225585,495.642578 L168.705077,495.642578 C168.819335,497.743164 170.515624,499.210938 173.169921,499.210938 C175.657225,499.210938 177.643553,497.69043 177.643553,495.510742 C177.643553,493.726562 176.413085,492.540039 174.497069,492.425781 L174.497069,492.390625 C176.0791,492.109375 177.098632,490.966797 177.098632,489.375977 C177.098632,487.46875 175.384764,486.106445 173.117186,486.106445 C170.73535,486.106445 169.135741,487.486328 168.95996,489.639648 L170.480467,489.639648 C170.621092,488.3125 171.587889,487.477539 173.046874,487.477539 C174.655272,487.477539 175.507811,488.330078 175.507811,489.586914 C175.507811,490.870117 174.48828,491.810547 173.029296,491.810547 L171.508788,491.810547 L171.508788,493.146484 Z M180.248046,489.973633 L180.248046,489.982422 L181.777342,489.982422 L181.777342,489.973633 C181.777342,488.558594 182.902342,487.486328 184.387694,487.486328 C185.785155,487.486328 186.901366,488.461914 186.901366,489.683594 C186.901366,490.738281 186.497069,491.415039 184.791991,493.208008 L180.327147,497.910156 L180.327147,499 L188.694335,499 L188.694335,497.59375 L182.515624,497.59375 L182.515624,497.558594 L185.723632,494.245117 C187.841796,492.056641 188.483397,491.001953 188.483397,489.586914 C188.483397,487.644531 186.699217,486.106445 184.431639,486.106445 C182.041014,486.106445 180.248046,487.758789 180.248046,489.973633 Z M195.825194,489.4375 C198.242186,489.4375 199.885741,491.371094 199.885741,494.262695 C199.885741,497.154297 198.250975,499.087891 195.86035,499.087891 C194.515624,499.087891 193.434569,498.499023 192.836913,497.461914 L192.801756,497.461914 L192.801756,502.164062 L191.27246,502.164062 L191.27246,489.525391 L192.722655,489.525391 L192.722655,491.063477 L192.757811,491.063477 C193.311522,490.079102 194.515624,489.4375 195.825194,489.4375 Z M195.543944,497.725586 C197.213866,497.725586 198.321288,496.363281 198.321288,494.262695 C198.321288,492.170898 197.213866,490.799805 195.543944,490.799805 C193.909178,490.799805 192.792967,492.206055 192.792967,494.262695 C192.792967,496.328125 193.909178,497.725586 195.543944,497.725586 Z M202.244139,499 L203.773436,499 L203.773436,493.120117 C203.773436,491.792969 204.705077,490.799805 205.970702,490.799805 C207.157225,490.799805 207.939452,491.555664 207.939452,492.698242 L207.939452,499 L209.468749,499 L209.468749,493.041016 C209.468749,491.740234 210.374022,490.799805 211.639647,490.799805 C212.905272,490.799805 213.634764,491.573242 213.634764,492.882812 L213.634764,499 L215.164061,499 L215.164061,492.53125 C215.164061,490.650391 213.95117,489.4375 212.0791,489.4375 C210.751952,489.4375 209.635741,490.105469 209.099608,491.230469 L209.064452,491.230469 C208.651366,490.087891 207.693358,489.4375 206.410155,489.4375 C205.179686,489.4375 204.168944,490.052734 203.720702,491.063477 L203.685545,491.063477 L203.685545,489.525391 L202.244139,489.525391 L202.244139,499 Z" id="Low-tide-1.2ft-04:32-Copy-2" fill="#FFFFFF"></path>
                <path d="M3.988,456 L8.164,456 L8.164,445.56 L17.704,445.56 L17.704,456 L21.88,456 L21.88,432.456 L17.704,432.456 L17.704,441.924 L8.164,441.924 L8.164,432.456 L3.988,432.456 L3.988,456 Z M29.0560003,456 L29.0560003,432.456 L36.5800003,432.456 C41.4400003,432.456 45.0040003,433.932 45.0040003,438.252 C45.0040003,440.484 43.7080003,442.644 40.9720003,443.364 L40.9720003,443.508 C44.3560003,444.084 46.2280003,445.92 46.2280003,449.088 C46.2280003,453.804 42.3760003,456 37.1920003,456 L29.0560003,456 Z M33.2320003,442.212 L36.2200003,442.212 C39.4960003,442.212 40.9000003,440.952 40.9000003,438.756 C40.9000003,436.596 39.3520003,435.696 36.2920003,435.696 L33.2320003,435.696 L33.2320003,442.212 Z M33.2320003,452.76 L36.7600003,452.76 C40.2160003,452.76 42.1600003,451.464 42.1600003,448.8 C42.1600003,446.352 40.2880003,445.2 36.7600003,445.2 L33.2320003,445.2 L33.2320003,452.76 Z M60.3280009,456 L60.3280009,432.456 L68.2480009,432.456 C73.3960009,432.456 77.2120009,434.256 77.2120009,439.728 C77.2120009,444.948 73.3240009,447.36 68.2480009,447.36 L64.5040009,447.36 L64.5040009,456 L60.3280009,456 Z M64.5040009,444.012 L67.9240009,444.012 C71.4160009,444.012 73.1080009,442.608 73.1080009,439.728 C73.1080009,436.776 71.3440009,435.804 67.9240009,435.804 L64.5040009,435.804 L64.5040009,444.012 Z M84.5680011,435.228 C86.0440011,435.228 87.1240011,434.256 87.1240011,432.888 C87.1240011,431.484 86.0440011,430.512 84.5680011,430.512 C83.0920011,430.512 82.0120011,431.484 82.0120011,432.888 C82.0120011,434.256 83.0920011,435.228 84.5680011,435.228 Z M82.4800011,456 L86.6200011,456 L86.6200011,438.324 L82.4800011,438.324 L82.4800011,456 Z M91.9600014,447.18 C91.9600014,441.42 95.9560014,437.892 100.096001,437.892 C104.884001,437.892 107.404001,441.348 107.404001,446.28 C107.404001,447.072 107.332001,447.792 107.224001,448.224 L95.9920014,448.224 C96.3520014,451.428 98.3680014,453.228 101.212001,453.228 C102.724001,453.228 104.020001,452.76 105.316001,451.932 L106.720001,454.524 C105.028001,455.64 102.904001,456.432 100.672001,456.432 C95.7760014,456.432 91.9600014,453.012 91.9600014,447.18 Z M95.9560014,445.596 L103.804001,445.596 C103.804001,442.788 102.616001,441.096 100.204001,441.096 C98.1160014,441.096 96.3160014,442.644 95.9560014,445.596 Z M112.564002,456 L116.704002,456 L116.704002,445.2 C117.784002,442.536 119.476002,441.564 120.880002,441.564 C121.636002,441.564 122.104002,441.672 122.716002,441.852 L123.436002,438.252 C122.896002,438 122.320002,437.892 121.420002,437.892 C119.548002,437.892 117.676002,439.152 116.416002,441.456 L116.272002,441.456 L115.984002,438.324 L112.564002,438.324 L112.564002,456 Z M134.512002,452.976 C136.744002,455.172 139.840002,456.432 143.008002,456.432 C148.300002,456.432 151.468002,453.264 151.468002,449.448 C151.468002,446.028 149.488002,444.264 146.716002,443.076 L143.512002,441.744 C141.568002,440.952 139.768002,440.268 139.768002,438.432 C139.768002,436.704 141.244002,435.66 143.476002,435.66 C145.492002,435.66 147.076002,436.416 148.588002,437.676 L150.712002,435.012 C148.876002,433.176 146.212002,432.024 143.476002,432.024 C138.868002,432.024 135.556002,434.904 135.556002,438.648 C135.556002,442.104 138.004002,443.94 140.308002,444.912 L143.548002,446.316 C145.672002,447.216 147.184002,447.828 147.184002,449.772 C147.184002,451.608 145.744002,452.796 143.080002,452.796 C140.920002,452.796 138.652002,451.716 136.960002,450.132 L134.512002,452.976 Z M155.440003,447.18 C155.440003,441.276 159.436003,437.892 163.828003,437.892 C168.256003,437.892 172.252003,441.276 172.252003,447.18 C172.252003,453.048 168.256003,456.432 163.828003,456.432 C159.436003,456.432 155.440003,453.048 155.440003,447.18 Z M159.688003,447.18 C159.688003,450.708 161.236003,453.048 163.828003,453.048 C166.420003,453.048 168.004003,450.708 168.004003,447.18 C168.004003,443.616 166.420003,441.276 163.828003,441.276 C161.236003,441.276 159.688003,443.616 159.688003,447.18 Z M177.376003,449.412 C177.376003,453.876 179.032003,456.432 182.812003,456.432 C185.224003,456.432 186.952003,455.244 188.500003,453.408 L188.608003,453.408 L188.932003,456 L192.316003,456 L192.316003,438.324 L188.176003,438.324 L188.176003,450.42 C186.844003,452.148 185.800003,452.868 184.252003,452.868 C182.344003,452.868 181.516003,451.788 181.516003,448.872 L181.516003,438.324 L177.376003,438.324 L177.376003,449.412 Z M199.384003,450.024 C199.384003,453.84 200.896003,456.432 205.000003,456.432 C206.404003,456.432 207.628003,456.108 208.600003,455.784 L207.880003,452.724 C207.376003,452.94 206.656003,453.12 206.044003,453.12 C204.352003,453.12 203.560003,452.112 203.560003,450.024 L203.560003,441.6 L208.060003,441.6 L208.060003,438.324 L203.560003,438.324 L203.560003,433.5 L200.104003,433.5 L199.600003,438.324 L196.864003,438.504 L196.864003,441.6 L199.384003,441.6 L199.384003,450.024 Z M212.968003,456 L217.108003,456 L217.108003,443.652 C218.584003,442.212 219.592003,441.456 221.140003,441.456 C223.084003,441.456 223.912003,442.536 223.912003,445.452 L223.912003,456 L228.052003,456 L228.052003,444.912 C228.052003,440.448 226.396003,437.892 222.616003,437.892 C220.204003,437.892 218.440003,439.152 216.964003,440.556 L217.108003,437.136 L217.108003,430.584 L212.968003,430.584 L212.968003,456 Z M232.492004,453.984 C234.220004,455.388 236.776004,456.432 239.188004,456.432 C243.652004,456.432 246.064004,453.984 246.064004,450.96 C246.064004,447.648 243.400004,446.496 240.988004,445.596 C239.080004,444.912 237.316004,444.372 237.316004,442.968 C237.316004,441.852 238.144004,441.024 239.908004,441.024 C241.312004,441.024 242.572004,441.636 243.796004,442.536 L245.704004,440.016 C244.264004,438.9 242.284004,437.892 239.836004,437.892 C235.876004,437.892 233.392004,440.088 233.392004,443.184 C233.392004,446.136 236.020004,447.468 238.360004,448.332 C240.232004,449.052 242.140004,449.7 242.140004,451.176 C242.140004,452.4 241.240004,453.3 239.332004,453.3 C237.532004,453.3 236.020004,452.544 234.436004,451.32 L232.492004,453.984 Z M253.060004,435.228 C254.536004,435.228 255.616004,434.256 255.616004,432.888 C255.616004,431.484 254.536004,430.512 253.060004,430.512 C251.584004,430.512 250.504004,431.484 250.504004,432.888 C250.504004,434.256 251.584004,435.228 253.060004,435.228 Z M250.972004,456 L255.112004,456 L255.112004,438.324 L250.972004,438.324 L250.972004,456 Z M260.524004,447.18 C260.524004,441.42 264.160004,437.892 268.012004,437.892 C270.028004,437.892 271.288004,438.648 272.656004,439.836 L272.512004,436.992 L272.512004,430.584 L276.652004,430.584 L276.652004,456 L273.232004,456 L272.944004,454.092 L272.800004,454.092 C271.504004,455.388 269.704004,456.432 267.796004,456.432 C263.368004,456.432 260.524004,453.012 260.524004,447.18 Z M264.808004,447.144 C264.808004,450.96 266.248004,453.012 268.804004,453.012 C270.172004,453.012 271.324004,452.4 272.512004,451.032 L272.512004,442.788 C271.288004,441.708 270.100004,441.312 268.912004,441.312 C266.644004,441.312 264.808004,443.436 264.808004,447.144 Z M281.956005,447.18 C281.956005,441.42 285.952005,437.892 290.092005,437.892 C294.880005,437.892 297.400005,441.348 297.400005,446.28 C297.400005,447.072 297.328005,447.792 297.220005,448.224 L285.988005,448.224 C286.348005,451.428 288.364005,453.228 291.208005,453.228 C292.720005,453.228 294.016005,452.76 295.312005,451.932 L296.716005,454.524 C295.024005,455.64 292.900005,456.432 290.668005,456.432 C285.772005,456.432 281.956005,453.012 281.956005,447.18 Z M285.952005,445.596 L293.800005,445.596 C293.800005,442.788 292.612005,441.096 290.200005,441.096 C288.112005,441.096 286.312005,442.644 285.952005,445.596 Z M320.644005,456.432 C314.524005,456.432 310.276005,451.752 310.276005,444.12 C310.276005,436.524 314.524005,432.024 320.644005,432.024 C326.800005,432.024 331.048005,436.524 331.048005,444.12 C331.048005,451.752 326.800005,456.432 320.644005,456.432 Z M320.644005,452.796 C324.352005,452.796 326.728005,449.412 326.728005,444.12 C326.728005,438.864 324.352005,435.66 320.644005,435.66 C316.936005,435.66 314.560005,438.864 314.560005,444.12 C314.560005,449.412 316.936005,452.796 320.644005,452.796 Z M340.564005,456 L345.352005,456 L351.364005,438.324 L347.368005,438.324 L344.560005,447.504 C344.056005,449.232 343.552005,451.032 343.048005,452.832 L342.904005,452.832 C342.436005,451.032 341.896005,449.232 341.428005,447.504 L338.620005,438.324 L334.408005,438.324 L340.564005,456 Z M354.256006,447.18 C354.256006,441.42 358.252006,437.892 362.392006,437.892 C367.180006,437.892 369.700006,441.348 369.700006,446.28 C369.700006,447.072 369.628006,447.792 369.520006,448.224 L358.288006,448.224 C358.648006,451.428 360.664006,453.228 363.508006,453.228 C365.020006,453.228 366.316006,452.76 367.612006,451.932 L369.016006,454.524 C367.324006,455.64 365.200006,456.432 362.968006,456.432 C358.072006,456.432 354.256006,453.012 354.256006,447.18 Z M358.252006,445.596 L366.100006,445.596 C366.100006,442.788 364.912006,441.096 362.500006,441.096 C360.412006,441.096 358.612006,442.644 358.252006,445.596 Z M374.860006,456 L379.000006,456 L379.000006,445.2 C380.080006,442.536 381.772006,441.564 383.176006,441.564 C383.932006,441.564 384.400006,441.672 385.012006,441.852 L385.732006,438.252 C385.192006,438 384.616006,437.892 383.716006,437.892 C381.844006,437.892 379.972006,439.152 378.712006,441.456 L378.568006,441.456 L378.280006,438.324 L374.860006,438.324 L374.860006,456 Z M393.880006,456 L398.668006,456 L404.680006,438.324 L400.684006,438.324 L397.876006,447.504 C397.372006,449.232 396.868006,451.032 396.364006,452.832 L396.220006,452.832 C395.752006,451.032 395.212006,449.232 394.744006,447.504 L391.936006,438.324 L387.724006,438.324 L393.880006,456 Z M411.028007,435.228 C412.504007,435.228 413.584007,434.256 413.584007,432.888 C413.584007,431.484 412.504007,430.512 411.028007,430.512 C409.552007,430.512 408.472007,431.484 408.472007,432.888 C408.472007,434.256 409.552007,435.228 411.028007,435.228 Z M408.940007,456 L413.080007,456 L413.080007,438.324 L408.940007,438.324 L408.940007,456 Z M418.420007,447.18 C418.420007,441.42 422.416007,437.892 426.556007,437.892 C431.344007,437.892 433.864007,441.348 433.864007,446.28 C433.864007,447.072 433.792007,447.792 433.684007,448.224 L422.452007,448.224 C422.812007,451.428 424.828007,453.228 427.672007,453.228 C429.184007,453.228 430.480007,452.76 431.776007,451.932 L433.180007,454.524 C431.488007,455.64 429.364007,456.432 427.132007,456.432 C422.236007,456.432 418.420007,453.012 418.420007,447.18 Z M422.416007,445.596 L430.264007,445.596 C430.264007,442.788 429.076007,441.096 426.664007,441.096 C424.576007,441.096 422.776007,442.644 422.416007,445.596 Z M441.940007,456 L446.692007,456 L448.708007,447.792 C449.104007,446.136 449.428007,444.48 449.752007,442.608 L449.896007,442.608 C450.292007,444.48 450.580007,446.1 450.976007,447.756 L453.028007,456 L457.960007,456 L462.460007,438.324 L458.572007,438.324 L456.448007,447.504 C456.124007,449.196 455.836007,450.852 455.512007,452.58 L455.368007,452.58 C454.972007,450.852 454.612007,449.196 454.180007,447.504 L451.840007,438.324 L448.060007,438.324 L445.756007,447.504 C445.324007,449.16 444.964007,450.852 444.640007,452.58 L444.496007,452.58 C444.172007,450.852 443.920007,449.196 443.560007,447.504 L441.436007,438.324 L437.260007,438.324 L441.940007,456 Z" id="HB-Pier-Southside-Ov" fill="#FFFFFF"></path>
                <g id="conditions-poor-to-fair-small-copy" transform="translate(2.000000, 378.000000)">
                    <rect id="Rectangle-10" fill="#23D737" x="0" y="0" width="159.712003" height="30.7034792"></rect>
                    <path d="M15.75733,10.604665 L15.75733,8.32658496 L8.64085005,8.32658496 L8.64085005,21.773305 L11.26165,21.773305 L11.26165,15.866425 L15.47509,15.866425 L15.47509,13.588345 L11.26165,13.588345 L11.26165,10.604665 L15.75733,10.604665 Z M26.0725301,18.930745 L20.5688501,18.930745 L19.3592501,21.773305 L16.5771701,21.773305 L22.4034101,8.04434496 L24.3790901,8.04434496 L30.0238901,21.773305 L27.2216501,21.773305 L26.0725301,18.930745 Z M25.2459701,16.813945 L23.3710901,11.975545 L21.4155701,16.813945 L25.2459701,16.813945 Z M35.0773301,8.32658496 L32.4565301,8.32658496 L32.4565301,21.773305 L35.0773301,21.773305 L35.0773301,8.32658496 Z M44.5861301,16.108345 L48.8197301,21.773305 L45.5941301,21.773305 L41.9653301,16.370425 L41.6226101,16.370425 L41.6226101,21.773305 L39.0018101,21.773305 L39.0018101,8.32658496 L42.8926901,8.32658496 C44.3845301,8.32658496 45.5739701,8.64914496 46.3198901,9.27410496 C47.1464501,9.95954496 47.6504501,11.108665 47.6504501,12.298105 C47.6504501,13.507705 47.1867701,14.616505 46.4408501,15.261625 C45.9166901,15.705145 45.4328501,15.947065 44.5861301,16.108345 Z M41.6226101,14.515705 L42.3886901,14.515705 C44.0418101,14.515705 44.9490101,13.789945 44.9490101,12.459385 C44.9490101,11.128825 44.0821301,10.443385 42.4290101,10.443385 L41.6226101,10.443385 L41.6226101,14.515705 Z M61.5272502,21.773305 L61.5272502,10.604665 L64.5512502,10.604665 L64.5512502,8.32658496 L55.9026102,8.32658496 L55.9026102,10.604665 L58.9064502,10.604665 L58.9064502,21.773305 L61.5272502,21.773305 Z M73.2334902,8.02418496 C77.2453302,8.02418496 80.3902902,11.108665 80.3902902,15.060025 C80.3902902,19.031545 77.2251702,22.075705 73.1326902,22.075705 C69.1006902,22.075705 66.0162102,18.991225 66.0162102,14.959225 C66.0162102,11.128825 69.2418102,8.02418496 73.2334902,8.02418496 Z M73.1931702,10.423225 C70.7538102,10.423225 68.7176502,12.499705 68.7176502,14.999545 C68.7176502,17.600185 70.7134902,19.676665 73.2133302,19.676665 C75.6728502,19.676665 77.6888502,17.600185 77.6888502,15.039865 C77.6888502,12.479545 75.6930102,10.423225 73.1931702,10.423225 Z M96.3032503,14.576185 L96.3032503,16.854265 L99.4683703,16.854265 C99.2667703,18.567865 97.8555703,19.696825 95.9403703,19.696825 C93.4203703,19.696825 91.5454903,17.741305 91.5454903,15.120505 C91.5454903,12.419065 93.4203703,10.423225 95.9605303,10.423225 C97.4725303,10.423225 98.6418103,11.088505 99.4482103,12.419065 L101.74645,11.189305 C100.47637,9.11282496 98.4805303,8.02418496 95.9806903,8.02418496 C91.8478903,8.02418496 88.8440503,11.007865 88.8440503,15.120505 C88.8440503,19.152505 91.8277303,22.075705 95.9000503,22.075705 C98.5611703,22.075705 100.63765,20.825785 101.74645,18.567865 C102.27061,17.539705 102.43189,16.551865 102.45205,14.576185 L96.3032503,14.576185 Z M112.26325,8.02418496 C116.27509,8.02418496 119.42005,11.108665 119.42005,15.060025 C119.42005,19.031545 116.25493,22.075705 112.16245,22.075705 C108.13045,22.075705 105.04597,18.991225 105.04597,14.959225 C105.04597,11.128825 108.27157,8.02418496 112.26325,8.02418496 Z M112.22293,10.423225 C109.78357,10.423225 107.74741,12.499705 107.74741,14.999545 C107.74741,17.600185 109.74325,19.676665 112.24309,19.676665 C114.70261,19.676665 116.71861,17.600185 116.71861,15.039865 C116.71861,12.479545 114.72277,10.423225 112.22293,10.423225 Z M129.21109,8.02418496 C133.22293,8.02418496 136.36789,11.108665 136.36789,15.060025 C136.36789,19.031545 133.20277,22.075705 129.11029,22.075705 C125.07829,22.075705 121.99381,18.991225 121.99381,14.959225 C121.99381,11.128825 125.21941,8.02418496 129.21109,8.02418496 Z M129.17077,10.423225 C126.73141,10.423225 124.69525,12.499705 124.69525,14.999545 C124.69525,17.600185 126.69109,19.676665 129.19093,19.676665 C131.65045,19.676665 133.66645,17.600185 133.66645,15.039865 C133.66645,12.479545 131.67061,10.423225 129.17077,10.423225 Z M139.62709,21.773305 L139.62709,8.32658496 L143.47765,8.32658496 C145.45333,8.32658496 147.02581,8.83058496 148.29589,9.87890496 C149.80789,11.108665 150.69493,13.023865 150.69493,15.039865 C150.69493,17.035705 149.78773,18.950905 148.25557,20.220985 C146.96533,21.309625 145.49365,21.773305 143.45749,21.773305 L139.62709,21.773305 Z M142.24789,19.495225 L142.95349,19.495225 C144.64693,19.495225 145.71541,19.172665 146.54197,18.426745 C147.44917,17.620345 147.99349,16.330105 147.99349,15.039865 C147.99349,13.749625 147.44917,12.499705 146.54197,11.693305 C145.67509,10.907065 144.64693,10.604665 142.95349,10.604665 L142.24789,10.604665 L142.24789,19.495225 Z" id="FAIR-TO-GOOD" fill="#FFFFFF"></path>
                </g>
                <g id="wind">
                    <path d="M16.6201203,29.2350639 L19.0510534,26.6574365 C20.8323406,24.7713677 21.5867681,23.3253817 21.5867681,21.774614 C21.5867681,19.1760303 19.4911361,17.2690052 16.6620329,17.2690052 C13.8329297,17.2690052 11.9468609,19.092205 11.758254,21.9841772 L14.6711825,21.9841772 C14.7340515,20.5381911 15.488479,19.678982 16.7458582,19.678982 C17.9194121,19.678982 18.8624465,20.6010601 18.8624465,21.7955703 C18.8624465,22.9691242 18.1918443,24.0378965 15.6561296,26.9298687 L11.5277345,31.6031281 L21.6915497,31.6031281 L21.6915497,29.2350639 L16.6201203,29.2350639 Z" id="2" fill="#FFFFFF"></path>
                    <path d="M27.7037839,19.5690365 L27.7037839,16.6141953 L26.3416231,16.6141953 L26.3416231,23.6031281 L27.7037839,23.6031281 L27.7037839,20.6273306 L27.8714344,20.4596801 L30.3547584,23.6031281 L32.1465237,23.6031281 L29.0345102,19.8414686 L31.9893513,16.6141953 L30.2709331,16.6141953 L27.7037839,19.5690365 Z M35.2061464,23.6031281 L35.2061464,17.7982274 L36.7778704,17.7982274 L36.7778704,16.6141953 L32.2827398,16.6141953 L32.2827398,17.7982274 L33.8439856,17.7982274 L33.8439856,23.6031281 L35.2061464,23.6031281 Z" id="KT" fill="#FFFFFF"></path>
                    <ellipse id="Oval-4" stroke="#FFFFFF" stroke-width="1.796256" cx="24.7368421" cy="24.1848485" rx="24.7368421" ry="24.1848485"></ellipse>
                    <polygon id="Rectangle" fill="#FFFFFF" transform="translate(37.782310, 5.732955) rotate(-191.000000) translate(-37.782310, -5.732955) " points="32.994534 1.0520169 42.5700858 1.0520169 42.5700858 10.4138937 35.9588352 6.78545763"></polygon>
                </g>
                <g id="Group-2-Copy" transform="translate(847.000000, 475.000000)" fill="#FFFFFF">
                    <path d="M11.4980724,25.1171918 L16.5105126,19.8022767 C20.1834214,15.9133144 21.7390064,12.9317767 21.7390064,9.73418549 C21.7390064,4.37605969 17.4179372,0.443886724 11.5844938,0.443886724 C5.75105034,0.443886724 1.86208807,4.20321692 1.47319184,10.1662924 L7.47947802,10.1662924 C7.60911009,7.18475466 9.164695,5.4131163 11.7573365,5.4131163 C14.1771353,5.4131163 16.1216164,7.31438674 16.1216164,9.77739618 C16.1216164,12.1971949 14.7388743,14.4009402 9.51038054,20.3640157 L0.99787423,30 L21.9550598,30 L21.9550598,25.1171918 L11.4980724,25.1171918 Z M26.2041113,17.9010063 L26.2041113,22.2652861 L35.926517,22.2652861 L35.926517,17.9010063 L26.2041113,17.9010063 Z M47.8670716,16.7343176 C48.2991785,16.6911069 48.7744961,16.6478962 48.9473389,16.6478962 C51.4967697,16.6478962 53.3980402,18.635588 53.3980402,21.2282295 C53.3980402,23.8640817 51.453559,25.7653522 48.7744961,25.7653522 C46.1386439,25.7653522 44.3670056,24.252978 44.02132,21.7035472 L38.4039301,21.7035472 C38.4471408,23.3023428 38.7928263,24.4258207 39.6570402,25.8517736 C41.5583106,29.0061541 44.7126911,30.7345818 48.7312855,30.7345818 C54.823993,30.7345818 59.0154301,27.0184623 59.0154301,21.6171258 C59.0154301,19.5862232 58.4104804,17.7281635 57.2870025,16.388632 C56.6388421,15.5676289 55.9906817,15.135522 54.6079396,14.573783 C57.0277383,13.0614088 57.9351628,11.3329811 57.9351628,8.43786473 C57.9351628,3.64147793 54.3918861,0.443886724 49.1201817,0.443886724 C43.6324238,0.443886724 40.3484112,3.29579239 39.5706188,8.69712888 L44.8855339,8.69712888 C45.1880087,6.19090875 46.5275402,4.93779868 48.7312855,4.93779868 C51.0214521,4.93779868 52.6202477,6.53659429 52.6202477,8.74033957 C52.6202477,11.1601383 51.0646628,12.7157232 48.6448641,12.7157232 L47.8670716,12.7157232 L47.8670716,16.7343176 Z" id="2-3"></path>
                    <path d="M74.2381683,5.16049289 L74.2381683,3.06786081 L67.701008,3.06786081 L67.701008,15.4199457 L70.1084608,15.4199457 L70.1084608,9.99391743 L73.9789042,9.99391743 L73.9789042,7.90128535 L70.1084608,7.90128535 L70.1084608,5.16049289 L74.2381683,5.16049289 Z M81.2074358,15.4199457 L81.2074358,5.16049289 L83.985266,5.16049289 L83.985266,3.06786081 L76.0406716,3.06786081 L76.0406716,5.16049289 L78.7999829,5.16049289 L78.7999829,15.4199457 L81.2074358,15.4199457 Z" id="FT-Copy-2"></path>
                </g>
            </g>
        </g>
    </g>
</svg>