<?xml version="1.0" encoding="UTF-8" standalone="no"?>
<svg width="28px" height="32px" viewBox="0 0 28 32" version="1.1" xmlns="http://www.w3.org/2000/svg" xmlns:xlink="http://www.w3.org/1999/xlink">
    <!-- Generator: Sketch 40.3 (33839) - http://www.bohemiancoding.com/sketch -->
    <title>Page 1</title>
    <desc>Created with Sketch.</desc>
    <defs></defs>
    <g id="desktop" stroke="none" stroke-width="1" fill="none" fill-rule="evenodd">
        <g id="landing-desktop" transform="translate(-928.000000, -5372.000000)" fill="#FFFFFF">
            <g id="get-the-app" transform="translate(0.000000, 5032.000000)">
                <g id="Group-13" transform="translate(470.000000, 311.000000)">
                    <g id="Group-12">
                        <g id="Group-10" transform="translate(0.000000, 13.000000)">
                            <g id="Group-6-Copy" transform="translate(438.000000, 0.000000)">
                                <g id="Page-1" transform="translate(20.000000, 16.000000)">
                                    <g id="Group-3" transform="translate(0.000000, 0.021407)">
                                        <path d="M15.8223872,16.0513622 C15.0737484,16.9981436 14.3315764,17.9372949 13.5888541,18.8760223 C10.3815125,22.9298522 7.16976806,26.9800084 3.9701317,31.0402675 C3.33411204,31.8473031 2.48964029,32.0677313 1.55738477,31.9898043 C0.933473219,31.9375233 0.50487371,31.4951832 0.31114398,30.9090703 C0.144657494,30.4052647 0.0145641278,29.859281 0.0135321867,29.331737 C-0.00421719902,20.4698877 -0.00559312039,11.6078971 0.0158712531,2.74611848 C0.0172471744,2.17540727 0.161512531,1.57551759 0.368175921,1.04175637 C0.678790172,0.239666207 1.39956658,-0.0877261827 2.2672914,0.101404035 C2.97767961,0.256268972 3.59306044,0.546570079 4.08660344,1.17585019 C7.93051499,6.07755152 11.8040088,10.9548079 15.6680776,15.8399065 C15.7176108,15.9025731 15.7625346,15.9690548 15.8223872,16.0513622" id="Fill-1"></path>
                                    </g>
                                    <path d="M21.9674791,11.1681075 C22.2840786,11.356178 22.6189779,11.5544221 22.9531892,11.7537259 C24.0905946,12.4318959 25.2416904,13.0875991 26.3582506,13.8002463 C26.7968256,14.0802325 27.2113907,14.4421727 27.5427125,14.8477041 C28.1048452,15.5356238 28.130231,16.4152877 27.5957543,17.127511 C27.2680098,17.564199 26.8503489,17.9688826 26.3947813,18.2581946 C24.965199,19.1662598 23.498742,20.0129302 22.0462506,20.8827031 C22.0086192,20.9051698 21.9667912,20.9203596 21.9096216,20.9470653 C21.0461622,19.8565109 20.1875184,18.7718205 19.3288059,17.6872714 C18.9532482,17.2130682 18.5701229,16.7446583 18.2085307,16.259363 C18.1484029,16.1787513 18.1254939,15.9796594 18.1784668,15.9120473 C19.4121867,14.3367629 20.6587715,12.7720053 21.9033612,11.2056227 C21.9101032,11.1971447 21.9229681,11.1937535 21.9674791,11.1681075" id="Fill-4"></path>
                                    <path d="M20.1961799,10.5455745 C18.979659,12.0827079 17.7910005,13.5847989 16.570971,15.1264539 C13.2365631,10.9128842 9.92582113,6.72912879 6.61514791,2.54551469 C6.63090221,2.52318927 6.64665651,2.50086385 6.66241081,2.47853843 C11.1563764,5.15723555 15.6504108,7.83600332 20.1961799,10.5455745" id="Fill-6"></path>
                                    <path d="M6.57701425,29.6329606 C9.89504865,25.4391729 13.213083,21.2453145 16.5697808,17.0027076 C17.7744688,18.5235915 18.9612698,20.0218674 20.1821936,21.5633105 C15.6486703,24.2783217 11.1335843,26.9821703 6.61856708,29.6861601 L6.57701425,29.6329606 Z" id="Fill-8"></path>
                                </g>
                            </g>
                        </g>
                    </g>
                </g>
            </g>
        </g>
    </g>
</svg>