<?xml version="1.0" encoding="UTF-8" standalone="no"?>
<svg width="62px" height="55px" viewBox="0 0 62 55" version="1.1" xmlns="http://www.w3.org/2000/svg" xmlns:xlink="http://www.w3.org/1999/xlink">
    <!-- Generator: Sketch 40.3 (33839) - http://www.bohemiancoding.com/sketch -->
    <title>“ copy</title>
    <desc>Created with Sketch.</desc>
    <defs></defs>
    <g id="mobile" stroke="none" stroke-width="1" fill="none" fill-rule="evenodd">
        <g id="landing-mobile" transform="translate(-30.000000, -5425.000000)" fill="#B5DBFC">
            <path d="M51.4771242,5425 C37.496732,5433.20896 30,5445.11194 30,5461.52985 C30,5473.43284 34.6601307,5480 42.7647059,5480 C49.0457516,5480 53.503268,5475.6903 53.503268,5468.71269 C53.503268,5461.9403 48.2352941,5458.24627 42.7647059,5458.24627 C42.1568627,5458.24627 41.5490196,5458.24627 40.9411765,5458.45149 C40.9411765,5446.75373 46.0065359,5439.77612 56.3398693,5433.00373 L51.4771242,5425 Z M87.3398693,5425 C73.1568627,5433.20896 65.6601307,5445.11194 65.6601307,5461.52985 C65.6601307,5473.43284 70.3202614,5480 78.4248366,5480 C84.7058824,5480 89.1633987,5475.6903 89.1633987,5468.71269 C89.1633987,5461.9403 84.0980392,5458.24627 78.4248366,5458.24627 C77.8169935,5458.24627 77.2091503,5458.24627 76.6013072,5458.45149 C76.6013072,5446.75373 81.869281,5439.77612 92,5433.00373 L87.3398693,5425 Z" id="“-copy"></path>
        </g>
    </g>
</svg>