<?xml version="1.0" encoding="UTF-8" standalone="no"?>
<svg width="30px" height="35px" viewBox="0 0 30 35" version="1.1" xmlns="http://www.w3.org/2000/svg" xmlns:xlink="http://www.w3.org/1999/xlink">
    <!-- Generator: Sketch 40.3 (33839) - http://www.bohemiancoding.com/sketch -->
    <title>25345</title>
    <desc>Created with Sketch.</desc>
    <defs></defs>
    <g id="desktop" stroke="none" stroke-width="1" fill="none" fill-rule="evenodd">
        <g id="landing-desktop" transform="translate(-834.000000, -5368.000000)" fill="#FFFFFF">
            <g id="get-the-app" transform="translate(0.000000, 5032.000000)">
                <g id="Group-13" transform="translate(470.000000, 311.000000)">
                    <g id="Group-12">
                        <g id="Group-10" transform="translate(0.000000, 13.000000)">
                            <g id="Group-6" transform="translate(349.000000, 0.000000)">
                                <g id="25345" transform="translate(15.000000, 12.000000)">
                                    <g id="Capa_1">
                                        <g id="Group">
                                            <path d="M26.5631579,22.8610294 C25.5755639,21.4755882 25.0821053,19.9147059 25.0821053,18.1797059 C25.0821053,16.5982353 25.5478195,15.1493382 26.4772932,13.8339706 C26.9781955,13.1202206 27.7941353,12.2947059 28.9247368,11.3568382 C28.1806767,10.4613971 27.4365414,9.76161765 26.6918797,9.25764706 C25.3466917,8.34808824 23.822406,7.89330882 22.1195489,7.89330882 C21.1036842,7.89330882 19.8654887,8.13110294 18.4060902,8.60727941 C17.0035338,9.08308824 15.9801504,9.32125 15.3364662,9.32125 C14.8496241,9.32125 13.8623308,9.11147059 12.373985,8.69139706 C10.8713534,8.27147059 9.60473684,8.06169118 8.5743609,8.06169118 C6.11285714,8.06169118 4.08067669,9.06948529 2.47789474,11.0846324 C0.86075188,13.1280147 0.0520300752,15.7450735 0.0520300752,18.9361029 C0.0520300752,22.3230147 1.10413534,25.8425735 3.20774436,29.4954412 C5.33992481,33.1202206 7.49383459,34.9328676 9.66909774,34.9328676 C10.3989474,34.9328676 11.3435338,34.6948529 12.5025564,34.2190441 C13.6619549,33.7575735 14.6779699,33.5263235 15.5510526,33.5263235 C16.4809774,33.5263235 17.5616541,33.7502206 18.7923308,34.1978676 C20.0945113,34.6452941 21.0965414,34.8692647 21.7976692,34.8692647 C23.6293985,34.8692647 25.4686466,33.4976471 27.3145113,30.7546324 C28.516391,29.0052941 29.3966165,27.2559559 29.9547368,25.5063971 C28.6810526,25.1282353 27.5506767,24.2465441 26.5631579,22.8610294 Z" id="Shape"></path>
                                            <path d="M19.2641353,6.63375 C20.1659398,5.75205882 20.8313534,4.78625 21.2608271,3.73676471 C21.6756391,2.68713235 21.8827068,1.73529412 21.8827068,0.881470588 C21.8827068,0.825661765 21.8796241,0.755588235 21.8718797,0.671544118 C21.8654135,0.587573529 21.8615789,0.517794118 21.8615789,0.461764706 C21.8471429,0.419705882 21.8293985,0.342720588 21.8080451,0.230882353 C21.7866917,0.119044118 21.7688722,0.0420588235 21.7542105,0 C19.2354887,0.574117647 17.4466917,1.60970588 16.387594,3.10727941 C15.3145865,4.61882353 14.7561654,6.41705882 14.7131579,8.50235294 C15.6720301,8.41830882 16.4158647,8.29955882 16.9456391,8.14551471 C17.7190226,7.89352941 18.4909023,7.38948529 19.2641353,6.63375 Z" id="Shape"></path>
                                        </g>
                                    </g>
                                </g>
                            </g>
                        </g>
                    </g>
                </g>
            </g>
        </g>
    </g>
</svg>